Coordinates
version=1
nRows=13
nColumns=40
inDegrees=yes

Units are S.I. units (second, meters, Newtons, ...)
If the header above contains a line with 'inDegrees', this indicates whether rotational values are in degrees (yes) or radians (no).

endheader
time	pelvis_tilt	pelvis_list	pelvis_rotation	pelvis_tx	pelvis_ty	pelvis_tz	hip_flexion_r	hip_adduction_r	hip_rotation_r	knee_angle_r	knee_angle_r_beta	ankle_angle_r	subtalar_angle_r	mtp_angle_r	hip_flexion_l	hip_adduction_l	hip_rotation_l	knee_angle_l	knee_angle_l_beta	ankle_angle_l	subtalar_angle_l	mtp_angle_l	lumbar_extension	lumbar_bending	lumbar_rotation	arm_flex_r	arm_add_r	arm_rot_r	elbow_flex_r	pro_sup_r	wrist_flex_r	wrist_dev_r	arm_flex_l	arm_add_l	arm_rot_l	elbow_flex_l	pro_sup_l	wrist_flex_l	wrist_dev_l
      0.00500000	     -1.24564245	     -2.28561884	      5.81096408	     -0.71712213	      0.93158653	      0.20773256	     22.00170648	     -4.70217360	    -19.62710306	     30.83411516	      0.53815683	     -4.70415176	    -12.15083556	      0.00000000	     -7.76473027	     -0.87600008	    -14.88362752	      7.45205737	      0.13006294	      1.76508813	      8.29218845	      0.00000000	      9.72137336	      2.03245743	     -5.37104989	     43.55345986	    -16.85029279	     43.55345986	     75.49249826	     44.93432315	      0.00000000	      0.00000000	     43.55345986	    -16.85029279	     43.55345986	     75.49249826	     44.93432315	      0.00000000	      0.00000000
      0.01000000	     -1.46190359	     -1.98812123	      5.97740506	     -0.71093464	      0.93035484	      0.20763102	     22.43085152	     -5.06462996	    -19.86982851	     29.27419129	      0.51093102	     -4.82598505	    -11.72981562	      0.00000000	     -7.99015307	     -0.58558811	    -14.75021509	      7.43061877	      0.12968876	      1.90351863	      8.36915309	      0.00000000	      9.89214113	      1.81020006	     -5.24339610	     43.55416032	    -16.84881176	     43.55416032	     75.49172652	     44.93460864	      0.00000000	      0.00000000	     43.55416032	    -16.84881176	     43.55416032	     75.49172652	     44.93460864	      0.00000000	      0.00000000
      0.01500000	     -1.46528942	     -2.08413240	      6.23175526	     -0.70437384	      0.92947772	      0.20721506	     22.42976817	     -4.95965797	    -20.34161576	     27.26741976	      0.47590625	     -5.19195826	    -11.24434327	      0.00000000	     -8.48155880	     -0.73714017	    -14.56765998	      7.30406029	      0.12747990	      2.03906009	      8.38449135	      0.00000000	      9.95209756	      1.99300270	     -5.44524820	     43.55634091	    -16.84420354	     43.55634091	     75.48932848	     44.93549125	      0.00000000	      0.00000000	     43.55634091	    -16.84420354	     43.55634091	     75.48932848	     44.93549125	      0.00000000	      0.00000000
      0.02000000	     -1.52880052	     -1.92507896	      6.49171114	     -0.69791763	      0.92840468	      0.20691149	     22.59378467	     -5.17225531	    -20.76210194	     25.51757476	      0.44536570	     -5.48626420	    -10.85055481	      0.00000000	     -8.90877694	     -0.62676555	    -14.40593395	      7.20577430	      0.12576449	      2.21264360	      8.62127169	      0.00000000	      9.99223883	      1.86744196	     -5.60550513	     43.55973435	    -16.83704228	     43.55973435	     75.48561457	     44.93684128	      0.00000000	      0.00000000	     43.55973435	    -16.83704228	     43.55973435	     75.48561457	     44.93684128	      0.00000000	      0.00000000
      0.02500000	     -1.71626931	     -1.69286128	      6.67324384	     -0.69133818	      0.92705566	      0.20679571	     22.95235873	     -5.47909886	    -21.16205759	     23.93205178	      0.41769310	     -5.60958314	    -10.22777240	      0.00000000	     -9.22049691	     -0.42595409	    -14.34937724	      7.12209561	      0.12430402	      2.35707133	      8.86593770	      0.00000000	     10.17762297	      1.65544831	     -5.66232617	     43.56326279	    -16.82960724	     43.56326279	     75.48177263	     44.93821960	      0.00000000	      0.00000000	     43.56326279	    -16.82960724	     43.56326279	     75.48177263	     44.93821960	      0.00000000	      0.00000000
      0.03000000	     -2.03047537	     -1.29909174	      6.78582121	     -0.68480171	      0.92544330	      0.20690366	     23.54389627	     -5.96946104	    -21.46801282	     22.57812489	      0.39406262	     -5.62262216	     -9.60059316	      0.00000000	     -9.41582249	     -0.03291764	    -14.30439708	      7.04431531	      0.12294650	      2.48090937	      9.11321424	      0.00000000	     10.46830779	      1.31845078	     -5.48960360	     43.56395990	    -16.82813983	     43.56395990	     75.48101620	     44.93848866	      0.00000000	      0.00000000	     43.56395990	    -16.82813983	     43.56395990	     75.48101620	     44.93848866	      0.00000000	      0.00000000
      0.03500000	     -2.23377545	     -1.11718966	      6.91691896	     -0.67807616	      0.92399682	      0.20683217	     23.89743971	     -6.20642362	    -21.86902389	     21.00128736	      0.36654161	     -5.62102874	     -8.62011605	      0.00000000	     -9.74201642	      0.11785159	    -14.38327138	      6.91379387	      0.12066847	      2.59205864	      9.35737141	      0.00000000	     10.68870649	      1.22195359	     -5.49514178	     43.56586786	    -16.82412569	     43.56586786	     75.47894975	     44.93921998	      0.00000000	      0.00000000	     43.56586786	    -16.82412569	     43.56586786	     75.47894975	     44.93921998	      0.00000000	      0.00000000
      0.04000000	     -2.51132940	     -0.78408219	      7.00806569	     -0.67150403	      0.92239442	      0.20718424	     24.43318429	     -6.59886680	    -22.25865841	     19.66806165	      0.34327243	     -5.60970927	     -7.84946883	      0.00000000	     -9.98433616	      0.41653930	    -14.36119532	      6.82412210	      0.11910340	      2.69843679	      9.64650103	      0.00000000	     10.93307247	      0.87919901	     -5.32083677	     43.56682054	    -16.82212275	     43.56682054	     75.47792034	     44.93958217	      0.00000000	      0.00000000	     43.56682054	    -16.82212275	     43.56682054	     75.47792034	     44.93958217	      0.00000000	      0.00000000
      0.04500000	     -2.78245670	     -0.50236424	      7.07396211	     -0.66488828	      0.92079551	      0.20748776	     24.93555019	     -6.92005237	    -22.63051011	     18.30649968	      0.31950869	     -5.54062710	     -6.84846814	      0.00000000	    -10.24219713	      0.66774762	    -14.42467546	      6.71212115	      0.11714861	      2.78272189	      9.93167504	      0.00000000	     11.18546219	      0.63003372	     -5.18580185	     43.56787003	    -16.81991727	     43.56787003	     75.47678807	     44.93997896	      0.00000000	      0.00000000	     43.56787003	    -16.81991727	     43.56787003	     75.47678807	     44.93997896	      0.00000000	      0.00000000
      0.05000000	     -3.07537024	     -0.17271881	      7.13772750	     -0.65833271	      0.91915088	      0.20782361	     25.48212565	     -7.29379904	    -22.98291693	     17.03644857	      0.29734212	     -5.46087578	     -5.88614476	      0.00000000	    -10.47895297	      0.97283329	    -14.46720894	      6.60179725	      0.11522310	      2.87952039	     10.22670886	      0.00000000	     11.44705352	      0.34758042	     -5.01022983	     43.56854243	    -16.81850479	     43.56854243	     75.47606361	     44.94023200	      0.00000000	      0.00000000	     43.56854243	    -16.81850479	     43.56854243	     75.47606361	     44.94023200	      0.00000000	      0.00000000
      0.05500000	     -3.21816908	     -0.04225343	      7.19445186	     -0.65158564	      0.91770916	      0.20817694	     25.80863322	     -7.45037329	    -23.60694119	     15.72230194	      0.27440593	     -5.21288699	     -4.31285127	      0.00000000	    -10.86683996	      1.02326552	    -14.67109007	      6.49394843	      0.11334078	      2.95605992	     10.66572601	      0.00000000	     11.58129900	      0.27755607	     -4.89394230	     43.57093628	    -16.81347971	     43.57093628	     75.47349081	     44.94112464	      0.00000000	      0.00000000	     43.57093628	    -16.81347971	     43.57093628	     75.47349081	     44.94112464	      0.00000000	      0.00000000
      0.06000000	     -3.55062735	      0.27956120	      7.21351920	     -0.64510258	      0.91601475	      0.20878155	     26.41191094	     -7.77655887	    -23.91993428	     14.55616212	      0.25405296	     -5.08293834	     -3.19000906	      0.00000000	    -11.04373935	      1.30768200	    -14.72012273	      6.41018864	      0.11187890	      2.99925584	     10.97069557	      0.00000000	     11.86596088	     -0.04124483	     -4.67713559	     43.57184338	    -16.81157700	     43.57184338	     75.47251836	     44.94145993	      0.00000000	      0.00000000	     43.57184338	    -16.81157700	     43.57184338	     75.47251836	     44.94145993	      0.00000000	      0.00000000
      0.06500000	     -3.85306407	      0.53312226	      7.19352282	     -0.63855444	      0.91434159	      0.20942633	     26.96757365	     -8.01238024	    -24.26694537	     13.41696984	      0.23417030	     -4.84180577	     -1.72580790	      0.00000000	    -11.25523193	      1.51792490	    -14.88572810	      6.31296588	      0.11018204	      3.00432569	     11.30184528	      0.00000000	     12.11034587	     -0.27490946	     -4.45399382	     43.57300060	    -16.80915071	     43.57300060	     75.47127967	     44.94188528	      0.00000000	      0.00000000	     43.57300060	    -16.80915071	     43.57300060	     75.47127967	     44.94188528	      0.00000000	      0.00000000
